<mxfile host="app.diagrams.net" modified="2021-04-17T06:22:40.011Z" agent="5.0 (Macintosh; Intel Mac OS X 11_2_3) AppleWebKit/537.36 (KHTML, like Gecko) Chrome/88.0.4324.96 Safari/537.36" etag="6M38TCW4AIGj70lo660u" version="14.6.1" type="github">
  <diagram id="XehYBLYoERLtHjpo3H7T" name="第 1 页">
    <mxGraphModel dx="1367" dy="771" grid="1" gridSize="10" guides="1" tooltips="1" connect="1" arrows="1" fold="1" page="1" pageScale="1" pageWidth="827" pageHeight="1169" math="0" shadow="0">
      <root>
        <mxCell id="0" />
        <mxCell id="1" parent="0" />
      </root>
    </mxGraphModel>
  </diagram>
</mxfile>
